<?xml version="1.0" standalone="no"?>
<!DOCTYPE svg PUBLIC "-//W3C//DTD SVG 20010904//EN"
 "http://www.w3.org/TR/2001/REC-SVG-20010904/DTD/svg10.dtd">
<svg version="1.0" xmlns="http://www.w3.org/2000/svg"
 width="48.000000pt" height="48.000000pt" viewBox="0 0 48.000000 48.000000"
 preserveAspectRatio="xMidYMid meet">
<!-- ccdl:29480028000155:enehmclajcndmgefbmjhecccoegbdgea -->

<g transform="translate(0.000000,48.000000) scale(0.100000,-0.100000)"
fill="#000000" stroke="none">
<path d="M92 428 c-17 -17 -17 -359 0 -376 8 -8 45 -12 100 -12 86 0 88 1 76
20 -11 17 -24 20 -80 20 l-68 0 0 160 0 160 70 0 70 0 0 -50 0 -50 50 0 c28 0
50 -4 50 -10 0 -5 9 -10 20 -10 39 0 23 42 -38 103 l-58 57 -90 0 c-57 0 -94
-4 -102 -12z"/>
<path d="M331 226 c-67 -37 -65 -143 3 -174 16 -7 26 -20 26 -32 0 -13 7 -20
20 -20 13 0 20 7 20 20 0 12 10 25 23 31 27 12 57 58 57 88 0 75 -83 124 -149
87z m89 -46 c11 -11 20 -29 20 -40 0 -11 -9 -29 -20 -40 -11 -11 -29 -20 -40
-20 -28 0 -60 35 -60 64 0 27 33 56 62 56 10 0 27 -9 38 -20z"/>
</g>
</svg>
